<?xml version="1.0" encoding="iso-8859-1"?>
<!-- Generator: Adobe Illustrator 19.0.0, SVG Export Plug-In . SVG Version: 6.00 Build 0)  -->
<svg version="1.1" id="Layer_1" xmlns="http://www.w3.org/2000/svg" xmlns:xlink="http://www.w3.org/1999/xlink" x="0px" y="0px"
	 viewBox="0 0 512 512" style="enable-background:new 0 0 512 512;" xml:space="preserve">
<path style="fill:#85C250;" d="M511.929,261.658c0.041-1.882,0.072-3.767,0.071-5.658C512,114.616,397.385,0,256,0S0,114.616,0,256
	c0,121.48,84.615,223.196,198.122,249.429L511.929,261.658z"/>
<path style="fill:#6FA953;" d="M511.929,261.658L303.223,52.952l-94.445,94.445l49.395,49.395L73.828,381.135L198.122,505.43
	C216.721,509.727,236.095,512,256,512C395.493,512,508.919,400.429,511.929,261.658z"/>
<path style="fill:#5B3256;" d="M256,33.391l-22.261,66.783L256,166.957c36.883,0,66.783-29.899,66.783-66.783
	C322.783,63.291,292.883,33.391,256,33.391z"/>
<path style="fill:#843561;" d="M189.217,100.174c0,36.884,29.9,66.783,66.783,66.783V33.391
	C219.117,33.391,189.217,63.291,189.217,100.174z"/>
<path style="fill:#5B3256;" d="M121.051,267.13L98.79,333.913l22.261,66.783c36.883,0,66.783-29.899,66.783-66.783
	C187.834,297.03,157.934,267.13,121.051,267.13z"/>
<path style="fill:#843561;" d="M54.269,333.913c0,36.884,29.9,66.783,66.783,66.783V267.13
	C84.167,267.13,54.269,297.03,54.269,333.913z"/>
<path style="fill:#5B3256;" d="M390.95,267.13l-22.261,66.783l22.261,66.783c36.883,0,66.783-29.899,66.783-66.783
	C457.732,297.03,427.833,267.13,390.95,267.13z"/>
<path style="fill:#843561;" d="M324.167,333.913c0,36.884,29.9,66.783,66.783,66.783V267.13
	C354.067,267.13,324.167,297.03,324.167,333.913z"/>
<polygon style="fill:#85C250;" points="390.95,333.913 121.051,333.913 256,100.174 "/>
<g>
</g>
<g>
</g>
<g>
</g>
<g>
</g>
<g>
</g>
<g>
</g>
<g>
</g>
<g>
</g>
<g>
</g>
<g>
</g>
<g>
</g>
<g>
</g>
<g>
</g>
<g>
</g>
<g>
</g>
</svg>
